<?xml version="1.0" standalone="no"?>
<!DOCTYPE svg PUBLIC "-//W3C//DTD SVG 20010904//EN"
 "http://www.w3.org/TR/2001/REC-SVG-20010904/DTD/svg10.dtd">
<svg version="1.0" xmlns="http://www.w3.org/2000/svg"
 width="807.000000pt" height="807.000000pt" viewBox="0 0 807.000000 807.000000"
 preserveAspectRatio="xMidYMid meet">

<g transform="translate(0.000000,807.000000) scale(0.100000,-0.100000)"
fill="#000000" stroke="none">
<path d="M3650 7640 c-19 -19 -20 -33 -20 -285 l0 -265 -199 0 c-110 0 -211
-4 -225 -10 -28 -10 -56 -57 -56 -92 0 -16 106 -129 387 -410 l386 -387 -4
-373 -4 -373 113 -3 112 -3 0 378 0 378 371 375 c203 206 375 386 380 399 14
35 -6 88 -41 106 -23 12 -71 15 -225 15 l-195 0 0 259 c0 246 -1 260 -21 285
l-20 26 -360 0 c-346 0 -360 -1 -379 -20z"/>
<path d="M2275 6596 c-57 -25 -80 -61 -80 -124 0 -108 75 -164 171 -127 62 24
86 63 81 133 -4 59 -30 95 -84 118 -39 17 -50 17 -88 0z"/>
<path d="M2780 6587 c-74 -49 -96 -150 -52 -232 20 -36 22 -55 22 -182 l0
-142 -452 -3 c-502 -3 -486 -1 -558 -71 -60 -59 -74 -104 -78 -269 l-4 -148
-119 0 -119 0 -2 -77 c-1 -43 -2 -87 -3 -98 -3 -43 2 -45 126 -45 l119 0 0
-180 0 -180 -120 0 -121 0 3 -107 3 -108 118 -3 117 -3 0 -179 0 -180 -120 0
-120 0 0 -110 0 -110 120 0 120 0 0 -175 0 -175 -118 0 c-65 0 -121 -2 -123
-4 -2 -2 -3 -52 -1 -110 l3 -106 120 0 119 0 0 -180 0 -180 -120 0 -120 0 0
-110 0 -110 120 0 120 0 0 -175 0 -175 -119 0 -120 0 -3 -100 c-2 -55 -2 -105
0 -110 2 -6 54 -10 123 -10 l119 0 0 -175 0 -175 -120 0 -120 0 0 -110 0 -110
119 0 120 0 3 -272 c3 -311 5 -315 91 -395 78 -72 93 -74 570 -71 l417 3 0
-162 0 -163 25 -1 c14 0 62 -1 108 -2 l82 -1 -4 162 -4 162 216 0 216 0 -6
-159 -6 -160 107 -3 c59 -2 110 -1 112 1 2 2 4 76 4 163 l0 158 163 0 162 0 0
-161 0 -162 105 2 c57 1 106 4 108 5 2 2 4 74 5 160 l2 156 165 0 165 0 -3
-160 -3 -160 110 0 111 0 0 166 0 167 53 -7 c28 -3 123 -6 210 -6 l157 0 0
-160 0 -161 108 3 107 3 1 150 c0 83 1 155 2 160 1 6 156 10 439 10 423 0 440
1 483 21 58 26 108 76 134 134 19 42 21 65 24 310 l2 265 195 3 194 2 46 -34
c80 -62 172 -58 240 10 64 64 68 164 10 240 -54 70 -168 85 -239 31 l-35 -27
-205 0 -206 0 0 175 0 175 201 0 201 0 41 -35 c90 -77 207 -50 262 59 30 59
31 97 6 151 -33 71 -96 115 -165 115 -36 0 -106 -32 -119 -55 -7 -13 -42 -15
-217 -15 l-210 0 0 175 0 175 203 0 c196 0 205 -1 223 -21 43 -48 136 -63 201
-32 45 21 89 82 98 133 12 70 -34 163 -95 195 -61 31 -174 8 -203 -41 -6 -11
-50 -14 -217 -14 l-210 0 0 180 0 180 206 0 206 0 34 -30 c61 -53 142 -52 208
2 41 34 75 97 76 138 0 37 -44 124 -75 148 -64 50 -147 47 -215 -7 l-39 -31
-200 0 -201 0 0 129 c0 70 -3 149 -6 175 l-7 46 217 0 c131 0 216 -4 216 -10
0 -5 20 -21 45 -36 91 -53 204 -15 247 84 50 112 -39 252 -159 252 -42 0 -111
-28 -132 -53 -12 -15 -40 -17 -217 -17 l-204 0 0 143 c0 78 -3 159 -6 180 l-7
37 206 0 206 0 44 -31 c80 -56 156 -49 230 20 43 41 61 95 52 155 -24 143
-181 201 -289 106 l-34 -30 -201 0 -201 0 0 180 0 180 209 0 c142 0 212 -4
217 -11 11 -19 87 -49 123 -49 107 0 200 119 171 219 -41 141 -195 188 -289
87 l-24 -26 -203 0 -202 0 -4 148 c-4 134 -7 151 -31 198 -31 61 -92 116 -146
132 -26 8 -172 12 -475 12 l-436 0 0 149 c0 135 2 154 21 186 28 46 28 122 2
167 -61 105 -208 104 -264 -2 -33 -62 -21 -161 25 -199 14 -12 16 -66 16 -452
l0 -439 288 0 c258 0 291 -2 328 -19 47 -22 80 -59 94 -110 8 -25 10 -575 8
-1741 l-3 -1705 -23 -40 c-35 -61 -82 -88 -158 -93 l-64 -4 0 -174 c0 -205 6
-196 -127 -193 -125 3 -123 -1 -123 204 l0 165 -110 0 -110 0 0 -169 c0 -207
4 -201 -116 -201 -125 0 -124 -1 -124 205 l0 165 -840 0 -840 0 0 -163 c0
-210 2 -207 -120 -207 -124 0 -120 -7 -120 201 l0 170 -112 -3 -113 -3 -3
-170 c-2 -145 -5 -172 -19 -182 -23 -17 -183 -17 -206 0 -14 10 -17 37 -19
182 l-3 170 -66 6 c-83 7 -130 35 -158 93 -21 42 -21 43 -21 1759 0 1185 3
1724 11 1744 15 42 68 92 109 103 19 5 162 10 318 10 l282 0 0 439 c0 386 2
440 16 452 50 41 59 137 19 204 -43 74 -138 98 -205 52z m-70 -787 c26 -26 27
-89 1 -121 -18 -22 -27 -24 -106 -24 -100 0 -115 10 -115 80 0 68 24 85 120
85 67 0 83 -3 100 -20z m2844 -2 c27 -38 17 -117 -18 -140 -6 -4 -46 -8 -88
-8 -65 0 -81 3 -98 20 -32 32 -23 117 14 142 6 4 48 8 93 8 73 0 83 -2 97 -22z
m-3513 -661 c47 -36 52 -105 10 -148 -33 -32 -56 -36 -105 -15 -90 37 -58 177
41 176 21 0 45 -6 54 -13z m4094 -9 c56 -50 33 -150 -38 -163 -39 -8 -90 14
-107 44 -22 43 0 124 37 134 45 12 83 6 108 -15z m-4105 -513 c35 -18 50 -43
50 -84 0 -43 -9 -60 -41 -76 -42 -22 -86 -19 -114 9 -49 49 -41 121 18 150 40
20 51 20 87 1z m4091 0 c55 -29 65 -100 20 -146 -78 -77 -200 14 -147 110 15
26 51 50 79 51 10 0 31 -7 48 -15z m-8 -546 c63 -32 75 -102 28 -150 -78 -77
-198 12 -148 111 22 43 77 61 120 39z m-4058 -24 c51 -50 24 -137 -48 -150
-94 -18 -149 81 -84 153 30 32 99 31 132 -3z m-25 -610 c36 -19 50 -43 50 -90
0 -74 -91 -113 -153 -65 -65 51 -27 168 56 170 10 0 31 -7 47 -15z m4090 0
c59 -30 68 -98 21 -146 -38 -37 -88 -39 -128 -5 -23 20 -28 32 -28 71 0 39 5
51 28 71 32 28 66 30 107 9z m-4101 -536 c84 -29 78 -165 -8 -182 -70 -14
-129 41 -117 108 8 39 49 79 87 84 3 1 20 -4 38 -10z m4124 -30 c49 -53 31
-126 -38 -149 -79 -26 -148 51 -115 130 15 37 62 62 100 53 14 -3 37 -18 53
-34z m-4092 -578 c51 -51 34 -135 -32 -156 -57 -18 -129 27 -129 82 0 31 25
79 47 92 35 20 83 13 114 -18z m4090 0 c47 -47 38 -119 -18 -149 -64 -34 -143
12 -143 83 0 51 44 95 95 95 27 0 44 -8 66 -29z m-2312 -776 c19 -18 20 -108
2 -129 -10 -12 -32 -16 -92 -16 -69 0 -80 2 -93 22 -20 29 -20 87 -1 115 8 12
28 24 43 26 44 8 126 -3 141 -18z m583 -5 c25 -31 24 -104 -2 -130 -16 -16
-33 -20 -83 -20 -87 0 -107 15 -107 83 0 29 4 57 8 64 14 22 56 33 111 29 42
-2 59 -8 73 -26z"/>
<path d="M5658 6577 c-37 -31 -48 -58 -48 -116 0 -61 32 -105 89 -122 72 -22
152 29 166 104 8 43 -19 111 -55 137 -40 29 -116 27 -152 -3z"/>
<path d="M3380 6230 l0 -200 -100 0 -100 0 0 -295 0 -295 230 0 230 0 0 372 0
372 -122 123 c-68 68 -126 123 -130 123 -5 0 -8 -90 -8 -200z"/>
<path d="M4542 6307 l-122 -122 0 -373 0 -372 224 0 c136 0 227 4 231 10 3 5
3 138 -1 295 l-7 285 -94 0 -93 0 0 200 c0 110 -3 200 -8 200 -4 0 -62 -55
-130 -123z"/>
<path d="M1019 5597 c-45 -30 -81 -104 -81 -167 0 -144 169 -223 277 -129 92
81 80 226 -24 296 -47 31 -125 32 -172 0z"/>
<path d="M3805 5217 c-17 -14 -28 -36 -32 -63 -4 -33 -1 -45 22 -72 22 -26 34
-32 67 -32 53 0 77 14 94 57 18 42 5 94 -29 118 -32 23 -91 19 -122 -8z"/>
<path d="M4127 5220 c-28 -22 -43 -74 -32 -109 12 -37 46 -61 88 -61 52 0 76
15 93 57 18 42 5 94 -29 118 -31 21 -89 19 -120 -5z"/>
<path d="M2455 5206 c-14 -20 -15 -69 -13 -365 3 -335 3 -341 25 -362 31 -31
105 -31 136 0 21 21 22 28 24 284 1 144 2 270 2 280 1 15 16 17 165 17 186 0
186 0 194 79 4 41 1 51 -19 70 -22 20 -31 21 -261 21 l-238 0 -15 -24z"/>
<path d="M3126 5217 c-26 -19 -33 -99 -12 -132 l16 -25 240 0 c264 0 263 0
276 64 7 39 -1 69 -22 91 -21 21 -470 22 -498 2z"/>
<path d="M4436 5214 c-25 -24 -30 -64 -15 -108 l14 -41 245 -3 c280 -3 270 -6
270 84 0 85 5 84 -265 84 -199 0 -236 -2 -249 -16z"/>
<path d="M5103 5222 c-33 -21 -39 -126 -9 -151 7 -6 83 -12 177 -13 l164 -3 5
-283 c5 -266 6 -285 24 -298 29 -21 99 -18 127 5 l24 19 3 342 c3 298 1 345
-13 366 l-15 24 -238 0 c-130 0 -242 -4 -249 -8z"/>
<path d="M1047 5026 c-49 -18 -64 -32 -90 -80 -50 -96 -16 -211 75 -255 58
-28 102 -27 154 4 55 32 99 116 91 174 -16 122 -124 196 -230 157z"/>
<path d="M496 4950 c-40 -36 -52 -76 -36 -125 49 -148 266 -84 221 66 -26 87
-119 117 -185 59z"/>
<path d="M3484 4957 c-20 -18 -28 -35 -31 -73 -5 -46 -3 -53 27 -82 52 -53
132 -39 160 28 41 99 -77 194 -156 127z"/>
<path d="M3821 4966 c-68 -38 -66 -152 4 -184 86 -39 164 35 136 129 -19 63
-81 88 -140 55z"/>
<path d="M4118 4950 c-28 -28 -30 -35 -26 -82 7 -63 40 -98 94 -98 54 0 94 44
94 105 0 96 -97 140 -162 75z"/>
<path d="M4439 4951 c-64 -64 -21 -181 66 -181 27 0 44 8 66 29 64 64 21 181
-66 181 -27 0 -44 -8 -66 -29z"/>
<path d="M7422 4964 c-46 -32 -66 -112 -41 -167 15 -32 60 -57 104 -57 30 0
45 8 76 39 32 32 39 45 39 77 -1 22 -6 49 -14 62 -30 55 -116 80 -164 46z"/>
<path d="M2797 4800 c-33 -38 -41 -91 -32 -209 9 -118 18 -131 90 -131 74 0
89 19 94 121 l3 79 99 0 99 0 0 -218 c0 -209 1 -220 21 -238 19 -17 42 -19
229 -22 204 -4 208 -4 230 18 19 19 22 30 17 73 -7 81 -21 87 -188 87 l-139 0
0 168 c0 157 -2 172 -23 213 -13 24 -38 54 -57 67 -31 21 -42 22 -226 22
l-192 0 -25 -30z"/>
<path d="M4824 4811 c-17 -10 -42 -36 -55 -57 -23 -37 -24 -50 -27 -216 l-4
-178 -142 0 c-133 0 -144 -2 -162 -21 -14 -15 -19 -36 -19 -74 0 -86 -2 -85
227 -85 207 0 247 7 262 45 3 9 6 111 6 226 l0 209 103 0 102 0 0 -79 c0 -62
4 -83 18 -99 39 -43 137 -28 157 23 13 34 13 200 0 247 -6 20 -22 46 -37 58
-24 18 -39 20 -212 20 -165 0 -190 -2 -217 -19z"/>
<path d="M3485 4656 c-48 -48 -45 -127 6 -170 90 -76 200 35 144 144 -19 36
-43 50 -90 50 -25 0 -43 -8 -60 -24z"/>
<path d="M3807 4660 c-71 -56 -23 -200 66 -200 34 0 84 44 92 80 23 103 -81
181 -158 120z"/>
<path d="M4123 4656 c-25 -21 -28 -31 -28 -81 0 -52 3 -59 34 -87 28 -25 40
-29 69 -25 43 8 68 29 82 73 34 102 -78 187 -157 120z"/>
<path d="M4436 4649 c-59 -70 -15 -184 72 -184 48 0 78 24 91 71 30 109 -94
195 -163 113z"/>
<path d="M1034 4436 c-69 -30 -118 -141 -95 -216 51 -170 276 -173 331 -5 26
78 -23 190 -95 221 -43 17 -100 17 -141 0z"/>
<path d="M523 4375 c-38 -16 -73 -68 -73 -108 0 -40 28 -84 66 -102 40 -19 67
-19 104 0 40 21 60 53 60 98 0 56 -23 92 -70 111 -48 19 -46 19 -87 1z"/>
<path d="M7420 4367 c-49 -38 -66 -120 -34 -165 33 -48 101 -65 153 -38 111
58 68 217 -58 216 -25 0 -53 -6 -61 -13z"/>
<path d="M2503 4363 c-13 -2 -32 -16 -44 -31 -30 -38 -24 -136 10 -163 34 -28
105 -25 135 4 45 45 41 136 -6 174 -16 13 -66 22 -95 16z"/>
<path d="M2814 4354 c-49 -24 -68 -87 -44 -148 11 -30 57 -56 100 -56 94 0
122 169 34 206 -42 17 -51 17 -90 -2z"/>
<path d="M3818 4355 c-62 -34 -58 -154 7 -181 46 -19 90 -8 121 29 35 42 29
100 -16 140 -34 30 -70 34 -112 12z"/>
<path d="M4143 4360 c-26 -11 -53 -59 -53 -95 0 -37 26 -82 52 -91 80 -25 143
16 143 92 0 39 -5 50 -33 75 -33 30 -67 36 -109 19z"/>
<path d="M5153 4355 c-69 -30 -68 -159 1 -192 75 -35 146 11 146 94 0 57 -14
81 -55 99 -42 17 -51 17 -92 -1z"/>
<path d="M5484 4361 c-35 -15 -54 -51 -54 -104 0 -63 39 -107 95 -107 57 0 95
44 95 109 0 37 -6 56 -22 76 -25 28 -79 40 -114 26z"/>
<path d="M2466 4019 c-20 -24 -26 -41 -26 -79 0 -63 28 -99 85 -107 75 -10
127 65 105 149 -13 47 -43 68 -96 68 -35 0 -47 -5 -68 -31z"/>
<path d="M2804 4035 c-50 -34 -58 -142 -14 -177 19 -15 44 -18 169 -18 l146 0
-3 -54 c-9 -136 107 -256 247 -256 86 0 192 73 227 156 23 54 18 147 -10 202
-58 114 -166 168 -285 144 -83 -17 -329 -15 -361 3 -33 19 -90 19 -116 0z
m597 -194 c17 -18 29 -40 29 -56 0 -35 -50 -85 -85 -85 -78 0 -104 131 -32
160 38 15 58 11 88 -19z"/>
<path d="M5136 4034 c-23 -13 -56 -15 -190 -10 -88 3 -182 8 -208 11 -140 20
-265 -88 -276 -238 -6 -73 16 -132 68 -186 72 -74 153 -96 251 -68 112 33 171
113 171 231 l-1 71 144 -3 c91 -2 151 1 164 7 26 14 45 79 37 125 -13 67 -91
97 -160 60z m-383 -184 c56 -44 39 -133 -29 -146 -87 -16 -134 108 -56 150 37
21 55 20 85 -4z"/>
<path d="M5456 4019 c-20 -24 -26 -41 -26 -81 0 -41 5 -54 29 -79 67 -67 161
-14 161 90 0 60 -38 101 -95 101 -36 0 -48 -5 -69 -31z"/>
<path d="M3784 3959 c-17 -19 -19 -41 -22 -269 -4 -315 -20 -290 188 -290
l150 0 0 -704 c0 -696 0 -704 21 -730 28 -35 99 -37 133 -3 l23 23 6 969 c6
925 5 971 -12 995 l-18 25 -225 3 c-218 2 -225 2 -244 -19z"/>
<path d="M1024 3861 c-125 -76 -120 -258 8 -320 53 -25 86 -26 135 -6 50 21
72 42 94 90 41 89 5 195 -83 241 -39 20 -117 18 -154 -5z"/>
<path d="M508 3804 c-85 -46 -71 -187 21 -215 108 -32 191 81 131 179 -31 51
-96 67 -152 36z"/>
<path d="M7405 3787 c-30 -30 -35 -41 -35 -84 0 -56 17 -86 62 -109 91 -47
200 43 168 140 -17 51 -52 78 -109 84 -47 4 -53 2 -86 -31z"/>
<path d="M2482 3723 c-42 -17 -56 -132 -21 -177 18 -22 28 -26 74 -26 45 0 57
4 74 25 40 52 35 137 -12 170 -20 14 -88 19 -115 8z"/>
<path d="M2785 3698 c-24 -28 -27 -38 -23 -87 6 -69 30 -91 97 -91 67 0 96 32
96 105 0 74 -29 105 -96 105 -41 0 -51 -4 -74 -32z"/>
<path d="M5135 3706 c-79 -80 4 -228 105 -186 65 27 82 129 31 181 -39 38
-100 41 -136 5z"/>
<path d="M5472 3723 c-44 -17 -57 -135 -19 -178 33 -39 94 -45 132 -13 24 21
29 34 33 84 4 53 1 62 -22 87 -20 22 -33 27 -68 26 -24 0 -49 -3 -56 -6z"/>
<path d="M2504 3413 c-38 -7 -57 -40 -62 -103 -4 -53 -2 -61 22 -85 23 -22 33
-26 78 -23 43 3 54 8 72 31 31 42 29 119 -4 151 -26 25 -69 37 -106 29z"/>
<path d="M5493 3413 c-38 -7 -63 -50 -63 -105 0 -63 13 -86 57 -104 46 -20 97
-4 118 36 18 34 20 103 4 132 -10 18 -68 50 -86 47 -4 -1 -18 -4 -30 -6z"/>
<path d="M2807 3399 c-39 -23 -58 -104 -36 -152 18 -40 49 -47 212 -47 l152 0
-3 -75 c-3 -66 0 -81 21 -118 57 -95 121 -133 242 -144 l75 -6 0 -373 0 -374
-169 0 c-164 0 -170 -1 -185 -22 -9 -13 -16 -43 -16 -70 0 -76 5 -78 270 -78
188 0 229 3 248 16 l22 15 -1 602 c0 434 -4 611 -12 634 -25 67 -75 123 -134
150 -57 26 -57 26 -300 24 -206 -2 -246 0 -265 13 -26 18 -94 21 -121 5z m638
-224 c50 -49 17 -145 -49 -145 -81 0 -124 82 -75 144 28 36 89 37 124 1z"/>
<path d="M5130 3394 c-12 -13 -47 -15 -265 -13 -243 3 -253 2 -298 -20 -53
-26 -102 -77 -128 -135 -17 -38 -19 -79 -19 -643 0 -590 0 -603 20 -623 19
-19 33 -20 246 -20 136 0 233 4 245 10 16 9 19 22 19 73 0 36 -5 68 -12 75 -8
8 -63 12 -180 12 l-168 0 0 374 0 373 70 7 c112 10 190 55 232 133 33 61 42
107 30 161 l-10 42 164 0 c158 0 164 1 191 24 24 21 28 31 28 79 0 78 -28 107
-101 107 -34 0 -56 -5 -64 -16z m-400 -214 c44 -44 34 -108 -21 -139 -78 -44
-160 70 -97 136 28 30 89 32 118 3z"/>
<path d="M1075 3300 c-124 -28 -183 -176 -111 -282 63 -94 188 -106 263 -26
50 54 65 130 38 196 -35 83 -115 130 -190 112z"/>
<path d="M504 3231 c-64 -39 -72 -142 -14 -193 25 -23 40 -28 81 -28 44 0 55
4 79 30 38 41 44 82 20 136 -30 69 -104 93 -166 55z"/>
<path d="M3801 3224 c-21 -26 -21 -35 -21 -635 0 -596 0 -609 20 -629 15 -15
33 -20 69 -20 42 0 53 4 70 26 21 26 21 35 21 626 0 599 -2 629 -34 650 -6 4
-32 8 -58 8 -38 0 -50 -5 -67 -26z"/>
<path d="M7444 3236 c-48 -21 -74 -61 -74 -113 0 -38 5 -50 34 -79 30 -30 40
-34 84 -34 43 0 55 5 81 30 39 39 49 91 28 136 -28 58 -97 85 -153 60z"/>
<path d="M2466 3069 c-20 -24 -26 -41 -26 -81 0 -41 5 -54 29 -79 77 -77 195
11 162 122 -15 48 -44 69 -97 69 -35 0 -47 -5 -68 -31z"/>
<path d="M2803 3085 c-45 -31 -55 -134 -17 -176 9 -10 32 -21 51 -25 70 -13
123 37 123 116 0 80 -93 130 -157 85z"/>
<path d="M5133 3076 c-25 -21 -28 -31 -28 -81 0 -51 3 -59 33 -86 45 -41 84
-39 129 6 33 33 35 38 31 87 -4 40 -11 57 -32 75 -37 32 -95 31 -133 -1z"/>
<path d="M5472 3093 c-22 -9 -42 -60 -42 -108 0 -38 5 -52 29 -76 64 -64 161
-19 161 76 0 51 -20 99 -45 109 -19 7 -84 7 -103 -1z"/>
<path d="M2504 2783 c-38 -8 -57 -40 -62 -102 -4 -50 -1 -61 20 -85 19 -23 32
-28 71 -28 55 -1 80 17 98 69 29 90 -37 166 -127 146z"/>
<path d="M5484 2781 c-36 -16 -54 -51 -54 -109 0 -43 5 -58 24 -77 49 -49 122
-40 153 18 20 40 13 121 -14 148 -22 23 -78 33 -109 20z"/>
<path d="M2930 2757 c-19 -6 -58 -34 -87 -62 -67 -66 -92 -140 -73 -222 25
-113 131 -198 245 -197 75 0 127 26 184 90 67 77 80 171 35 262 -58 117 -180
168 -304 129z m137 -179 c50 -47 17 -128 -52 -128 -22 0 -43 8 -55 20 -12 12
-20 33 -20 55 0 68 77 101 127 53z"/>
<path d="M4945 2751 c-52 -24 -121 -99 -134 -147 -21 -74 -14 -144 19 -201 95
-165 329 -167 428 -3 27 45 32 64 32 116 0 178 -189 307 -345 235z m160 -176
c50 -49 13 -125 -61 -125 -50 0 -74 23 -74 72 0 74 82 107 135 53z"/>
<path d="M1028 2710 c-47 -25 -75 -65 -90 -128 -15 -66 7 -126 62 -176 151
-136 360 72 246 245 -49 73 -143 98 -218 59z"/>
<path d="M513 2641 c-42 -26 -53 -49 -53 -109 0 -45 4 -53 35 -81 91 -79 223
8 185 123 -24 74 -105 106 -167 67z"/>
<path d="M7423 2641 c-41 -26 -53 -49 -53 -105 0 -132 186 -159 227 -33 33 99
-86 193 -174 138z"/>
<path d="M2488 2469 c-41 -15 -48 -58 -48 -284 0 -165 3 -204 16 -223 15 -22
19 -22 253 -22 273 0 271 -1 271 84 0 87 2 86 -185 86 l-164 0 -3 160 c-3 144
-5 161 -23 179 -25 24 -81 34 -117 20z"/>
<path d="M5483 2470 c-37 -15 -43 -42 -43 -204 l0 -156 -168 0 c-117 0 -172
-4 -180 -12 -7 -7 -12 -39 -12 -75 0 -51 3 -64 19 -73 12 -6 112 -10 254 -10
206 0 236 2 248 17 19 22 26 431 9 473 -18 43 -74 61 -127 40z"/>
<path d="M1030 2128 c-61 -31 -104 -111 -96 -178 16 -120 136 -191 239 -141
109 53 139 197 58 285 -54 59 -127 71 -201 34z"/>
<path d="M2781 722 c-50 -27 -73 -75 -69 -142 4 -64 27 -102 75 -125 74 -36
162 -7 200 65 29 54 29 94 0 145 -39 70 -133 96 -206 57z"/>
<path d="M3402 720 c-35 -22 -72 -88 -72 -130 0 -42 37 -108 72 -130 47 -30
137 -24 174 11 107 99 46 269 -96 269 -28 0 -58 -8 -78 -20z"/>
<path d="M3970 733 c-8 -3 -26 -15 -38 -27 -77 -70 -67 -192 20 -247 52 -32
128 -22 174 21 77 76 62 200 -30 244 -33 16 -95 20 -126 9z"/>
<path d="M4493 721 c-82 -52 -91 -170 -19 -241 46 -43 122 -53 174 -21 89 56
97 176 18 250 -37 35 -127 41 -173 12z"/>
<path d="M5119 717 c-65 -43 -87 -129 -50 -197 73 -138 281 -87 281 70 0 119
-134 192 -231 127z"/>
<path d="M2261 712 c-62 -33 -86 -107 -57 -175 20 -48 50 -69 103 -74 59 -5
102 19 126 70 23 47 21 82 -5 128 -36 64 -104 85 -167 51z"/>
<path d="M5681 713 c-49 -26 -73 -62 -73 -115 -2 -82 52 -138 132 -138 70 0
130 63 130 137 0 89 -110 157 -189 116z"/>
</g>
</svg>
